<?xml version="1.0" standalone="no"?><!DOCTYPE svg PUBLIC "-//W3C//DTD SVG 1.1//EN" "http://www.w3.org/Graphics/SVG/1.1/DTD/svg11.dtd"><svg class="icon" height="512" viewBox="0 0 1024 1024" version="1.1" xmlns="http://www.w3.org/2000/svg"><path d="M512 0C230.4 0 0 230.4 0 512s230.4 512 512 512 512-230.4 512-512S793.6 0 512 0z m270.222222 420.977778l-267.377778 267.377778c-25.6 25.6-65.422222 25.6-88.177777 0l-179.2-179.2c-25.6-25.6-25.6-65.422222 0-88.177778 25.6-25.6 65.422222-25.6 88.177777 0l133.688889 133.688889 224.711111-224.711111c25.6-25.6 65.422222-25.6 88.177778 0 25.6 25.6 25.6 65.422222 0 91.022222z" fill="#66DBE2" /></svg>